<svg xmlns="http://www.w3.org/2000/svg" width="30" height="30">
    <path fill-rule="evenodd" fill="#FFF" d="M20.9 17.802c3.673-5.086 2.445-12.127-2.742-15.728-5.187-3.6-12.369-2.396-16.042 2.69C-1.556 9.849-.328 16.889 4.859 20.49a11.7 11.7 0 0 0 12.502.507l8.485 8.268c.916.946 2.44.983 3.404.085a2.328 2.328 0 0 0 0-3.423l-8.35-8.125zm-9.399.77c-4.099.001-7.422-3.254-7.424-7.272-.001-4.019 3.319-7.277 7.419-7.279 4.093-.001 7.415 3.249 7.423 7.262.007 4.019-3.312 7.283-7.413 7.289h-.005z"/>
</svg>
